<svg t="1679645876316" class="icon" viewBox="0 0 1035 1024" version="1.1" xmlns="http://www.w3.org/2000/svg" p-id="2614" width="72" height="72"><path d="M4.991999 0.000233m511.999884 0l0 0q511.999884 0 511.999883 511.999883l0 0q0 511.999884-511.999883 511.999884l0 0q-511.999884 0-511.999884-511.999884l0 0q0-511.999884 511.999884-511.999883Z" fill="#767FF1" p-id="2615"></path><path d="M512.151156 214.109275c7.563635 0 13.707633 6.132362 13.707634 13.707633v84.293799a13.707633 13.707633 0 0 1-27.415267 0V227.816908c0-7.563635 6.132362-13.707633 13.707633-13.707633zM448.104625 214.109275h0.954182a10.158543 10.158543 0 0 1 9.541816 13.672724l-31.185447 84.666163a19.66545 19.66545 0 0 1-36.887265 0L359.377373 227.781999A10.158543 10.158543 0 0 1 368.907553 214.109275h0.954181c8.157089 0 15.441451 5.119999 18.187632 12.811633l20.933814 58.589078L429.916993 226.909272A19.316359 19.316359 0 0 1 448.104625 214.109275z m141.230514 111.709065c-7.575271 0-13.707633-6.132362-13.707633-13.707633V233.425634c0-10.670543 8.645816-19.316359 19.316359-19.316359h35.514174c22.714177 0 41.134536 18.757814 41.134536 41.8909s-18.420359 41.8909-41.134536 41.890899h-27.415267v14.219633c0 7.563635-6.143999 13.707633-13.707633 13.707633z m13.707633-83.781799v27.927267h27.415267a13.84727 13.84727 0 0 0 13.707633-13.963633c0-7.714907-6.132362-13.963633-13.707633-13.963634h-27.415267z" fill="#FFFFFF" opacity=".804" p-id="2616"></path><path d="M572.090052 394.868507c24.459631 4.887272 48.86108 8.773816 71.81962 15.150542a51.374534 51.374534 0 0 1 36.154173 33.943265 2488.086707 2488.086707 0 0 0 31.255266 83.327981c1.966545 4.654544 7.807998 11.519997 11.205816 10.973088a36.142537 36.142537 0 0 1 41.518536 28.81163c1.256727 4.95709 1.256727 10.205089 0 15.150542l-27.857448 7.575271c1.733818 9.727998 2.862545 19.514177 3.397817 29.346902V754.501879a38.679264 38.679264 0 0 1-8.285089 22.493086c-25.77454 4.945453-52.247261 5.492362-78.196346 1.489454-10.426179-6.632726-11.112725-15.86036-10.938179-25.48363l0.128-5.794908c0.081455-5.166544-0.104727-10.321452-1.896727-15.127269H403.048636c-1.303272 4.654544-2.443636 10.193452-3.54909 15.790542l-0.930909 4.79418c-2.443636 12.718543-4.782544 24.552722-8.226908 25.832722-26.484358 4.642908-53.620351 4.642908-80.104709 0a43.543263 43.543263 0 0 1-8.762179-25.90254c-1.501091-19.549086-1.501091-38.109082-1.501091-57.134532 0-35.432719 0-70.865438 1.501091-106.542521L275.583937 582.05101a28.997812 28.997812 0 0 1 0-11.985452c7.330907-19.572359 17.117087-34.722901 42.286536-32.511993 2.920727 0 8.529453-5.841453 10.263271-10.26327a660.491486 660.491486 0 0 0 24.45963-66.676349 82.804345 82.804345 0 0 1 73.192711-60.369441c13.416724-2.443636 27.368721-4.177454 40.785445-6.388362l0.721455 1.012364 7.458907-1.024a354.629738 354.629738 0 0 1 97.33816 1.024zM327.237744 620.10191c-4.887272 21.236359 0 32.989083 15.871996 36.386901 12.450906 2.443636 24.447994 2.932363 38.109082 4.18909l-1.128727 0.523636c8.76218 0.477091 17.535996 0 26.123631-1.489454a24.319994 24.319994 0 0 0 15.86036-11.985452c1.256727-3.642181-4.410181-12.706906-9.309089-14.917815a574.370779 574.370779 0 0 0-61.067622-24.447994c-10.26327-3.409454-22.015995-2.687999-24.459631 11.752724z m369.407916-11.92727c-25.111267 7.458907-49.570898 16.75636-73.309074 27.857448-10.740361 5.131635-6.865453 19.327996 5.364362 22.015995 10.914907 1.664 21.946177 2.618181 32.989083 2.90909v0.244364h0.058182a345.681376 345.681376 0 0 0 38.353446-4.887272c18.315632-4.177454 14.429088-19.02545 13.893815-32.034901-0.465454-12.939633-7.330907-19.02545-17.349814-16.104724z m-234.717038-175.010869c-16.523633 0.663273-32.930902 3.16509-48.86108 7.575271a27.78763 27.78763 0 0 0-17.826905 12.229815c-13.730906 29.649448-23.970904 60.183259-35.90981 92.881433a771.467461 771.467461 0 0 0 319.592655 0c-9.064725-27.14763-18.071269-51.304716-24.447994-75.75271a40.575991 40.575991 0 0 0-40.564355-32.511992c-50.583261-2.210909-101.39925-3.944726-151.982511-4.421817z" fill="#FFFFFF" p-id="2617"></path></svg>
