<svg t="1679646277621" class="icon" viewBox="0 0 1024 1024" version="1.1" xmlns="http://www.w3.org/2000/svg" p-id="4021" width="72" height="72"><path d="M206.3872 330.6496c3.2768 0 6.5536-1.024 9.3696-3.1744l12.7488-9.8304a15.39072 15.39072 0 0 0 2.816-21.5552 15.39072 15.39072 0 0 0-21.5552-2.816l-12.7488 9.8304a15.39072 15.39072 0 0 0-2.816 21.5552c3.0208 3.8912 7.5776 5.9904 12.1856 5.9904zM175.2064 693.0944c8.4992 0 15.36-6.8608 15.36-15.36v-15.6672c0-8.4992-6.8608-15.36-15.36-15.36s-15.36 6.8608-15.36 15.36v15.6672c0 8.448 6.8608 15.36 15.36 15.36z" fill="#4C35D3" p-id="4022"></path><path d="M941.6704 911.4624h-75.0592V504.576c10.4448 6.0416 22.1696 9.216 34.4064 9.216 21.9648 0 42.1376-10.0352 55.3472-27.5456 22.9888-30.464 16.896-73.984-13.6192-96.9728l-93.1328-70.1952V170.1888c0-21.8112-17.7152-39.5264-39.5264-39.5264h-52.5824c-21.8112 0-39.5264 17.7152-39.5264 39.5264v49.664l-166.2976-125.3888c-24.7808-18.688-59.2896-18.5344-83.9168 0.4096l-214.016 164.608c-6.7072 5.1712-7.9872 14.7968-2.816 21.5552s14.848 7.9872 21.5552 2.816l214.0672-164.6592a38.5536 38.5536 0 0 1 46.6944-0.2048l391.0656 294.8096c16.9472 12.8 20.3776 36.9664 7.5776 53.9648-7.3728 9.728-18.5856 15.36-30.8224 15.36-8.3968 0-16.4352-2.6624-23.1424-7.7824l-358.2976-270.08a15.36 15.36 0 0 0-18.5856 0.1024L150.2208 475.0848a38.1696 38.1696 0 0 1-28.4672 7.68 38.38976 38.38976 0 0 1-25.5488-14.6944c-12.9536-16.8448-9.7792-41.0624 7.0656-54.016l53.0944-40.8064c6.7072-5.1712 7.9872-14.7968 2.816-21.5552s-14.848-7.9872-21.5552-2.816L84.48 389.632c-30.2592 23.296-35.9424 66.816-12.6976 97.1264 11.264 14.6432 27.5968 24.064 45.9264 26.4704a68.67456 68.67456 0 0 0 42.0864-7.8336v96.1536c0 8.4992 6.8608 15.36 15.36 15.36s15.36-6.8608 15.36-15.36V486.912c0-1.28-0.2048-2.5088-0.512-3.7376l320.3584-246.4256 325.4784 245.3504v429.312H190.5664v-151.3472c0-8.4992-6.8608-15.36-15.36-15.36s-15.36 6.8608-15.36 15.36v151.3472H87.3984c-8.4992 0-15.36 6.8608-15.36 15.36s6.8608 15.36 15.36 15.36h854.272c8.4992 0 15.36-6.8608 15.36-15.36s-6.8608-15.3088-15.36-15.3088zM748.6976 170.1888c0-4.864 3.9424-8.8064 8.8064-8.8064h52.5824c4.864 0 8.8064 3.9424 8.8064 8.8064v125.696l-70.1952-52.8896V170.1888z" fill="#4C35D3" p-id="4023"></path><path d="M584.96 638.6176c8.4992 0 15.36-6.8608 15.36-15.36s-6.8608-15.36-15.36-15.36h-43.3152l31.1808-37.7856c5.376-6.5536 4.4544-16.2304-2.048-21.6064a15.34464 15.34464 0 0 0-21.6064 2.048l-37.4784 45.4144-37.7856-43.4688a15.3856 15.3856 0 0 0-21.6576-1.536 15.3856 15.3856 0 0 0-1.536 21.6576l30.6176 35.2256h-42.3424c-8.4992 0-15.36 6.8608-15.36 15.36s6.8608 15.36 15.36 15.36H496.64v34.7648H439.04c-8.4992 0-15.36 6.8608-15.36 15.36s6.8608 15.36 15.36 15.36H496.64v29.3376c0 8.4992 6.8608 15.36 15.36 15.36s15.36-6.8608 15.36-15.36v-29.3376h57.6c8.4992 0 15.36-6.8608 15.36-15.36s-6.8608-15.36-15.36-15.36H527.36v-34.7648h57.6z" fill="#FF4D7C" p-id="4024"></path><path d="M609.4336 483.072H418.3552c-34.9696 0-63.3856 28.4672-63.3856 63.3856v191.0272c0 34.9696 28.4672 63.3856 63.3856 63.3856h191.0784c34.9696 0 63.3856-28.4672 63.3856-63.3856v-191.0272c0-34.9696-28.4672-63.3856-63.3856-63.3856z m32.6656 254.464c0 18.0224-14.6432 32.6656-32.6656 32.6656H418.3552c-18.0224 0-32.6656-14.6432-32.6656-32.6656v-191.0272c0-18.0224 14.6432-32.6656 32.6656-32.6656h191.0784c18.0224 0 32.6656 14.6432 32.6656 32.6656v191.0272z" fill="#FF4D7C" p-id="4025"></path></svg>
